<svg xmlns="http://www.w3.org/2000/svg" xmlns:xlink="http://www.w3.org/1999/xlink" viewBox="0 0 189.51 53.76"><defs><style>.cls-1,.cls-2{font-size:39.17px;fill:#1d1d1b;font-family:ArialMT, Arial;}.cls-1{letter-spacing:-0.05em;}.cls-2{letter-spacing:-0.05em;}.cls-15,.cls-17,.cls-18,.cls-19,.cls-20,.cls-21,.cls-3,.cls-30,.cls-31,.cls-32,.cls-33,.cls-34,.cls-35,.cls-36,.cls-37,.cls-38,.cls-39,.cls-4,.cls-40,.cls-41,.cls-42,.cls-43,.cls-44,.cls-45,.cls-46,.cls-5,.cls-6,.cls-7,.cls-8{stroke:#000;}.cls-10,.cls-11,.cls-12,.cls-13,.cls-14,.cls-15,.cls-16,.cls-17,.cls-18,.cls-19,.cls-20,.cls-21,.cls-22,.cls-23,.cls-24,.cls-25,.cls-26,.cls-27,.cls-28,.cls-29,.cls-3,.cls-30,.cls-31,.cls-32,.cls-33,.cls-34,.cls-35,.cls-36,.cls-37,.cls-38,.cls-39,.cls-4,.cls-40,.cls-41,.cls-42,.cls-43,.cls-44,.cls-45,.cls-46,.cls-5,.cls-6,.cls-7,.cls-8,.cls-9{stroke-miterlimit:10;stroke-width:0.25px;}.cls-3{fill:url(#radial-gradient);}.cls-4{fill:url(#linear-gradient);}.cls-5{fill:url(#radial-gradient-2);}.cls-6{fill:url(#radial-gradient-3);}.cls-14,.cls-7,.cls-9{fill:none;}.cls-8{fill:url(#radial-gradient-4);}.cls-9{stroke:#1d1d1b;}.cls-10,.cls-11,.cls-12,.cls-13,.cls-14,.cls-16,.cls-22,.cls-23,.cls-24,.cls-25,.cls-26,.cls-27,.cls-28,.cls-29{stroke:#bf8600;}.cls-10{fill:url(#radial-gradient-5);}.cls-11{fill:url(#radial-gradient-6);}.cls-12{fill:url(#radial-gradient-7);}.cls-13{fill:url(#radial-gradient-8);}.cls-15{fill:url(#radial-gradient-9);}.cls-16{fill:url(#radial-gradient-10);}.cls-17{fill:url(#radial-gradient-11);}.cls-18{fill:url(#radial-gradient-12);}.cls-19{fill:url(#radial-gradient-13);}.cls-20{fill:url(#radial-gradient-14);}.cls-21{fill:url(#radial-gradient-15);}.cls-22{fill:url(#radial-gradient-16);}.cls-23{fill:url(#radial-gradient-17);}.cls-24{fill:url(#radial-gradient-18);}.cls-25{fill:url(#radial-gradient-19);}.cls-26{fill:url(#radial-gradient-20);}.cls-27{fill:url(#radial-gradient-21);}.cls-28{fill:url(#radial-gradient-22);}.cls-29{fill:url(#radial-gradient-23);}.cls-30{fill:url(#radial-gradient-24);}.cls-31{fill:url(#radial-gradient-25);}.cls-32{fill:url(#radial-gradient-26);}.cls-33{fill:url(#radial-gradient-27);}.cls-34{fill:url(#radial-gradient-28);}.cls-35{fill:url(#radial-gradient-29);}.cls-36{fill:url(#radial-gradient-30);}.cls-37{fill:url(#radial-gradient-31);}.cls-38{fill:url(#radial-gradient-32);}.cls-39{fill:url(#radial-gradient-33);}.cls-40{fill:url(#radial-gradient-34);}.cls-41{fill:url(#radial-gradient-35);}.cls-42{fill:url(#radial-gradient-36);}.cls-43{fill:url(#radial-gradient-37);}.cls-44{fill:url(#radial-gradient-38);}.cls-45{fill:url(#radial-gradient-39);}.cls-46{fill:url(#radial-gradient-40);}</style><radialGradient id="radial-gradient" cx="63.64" cy="103.35" r="28.62" gradientTransform="translate(134.48 207.4) rotate(176.12) scale(1 1.05)" gradientUnits="userSpaceOnUse"><stop offset="0.69" stop-color="#42615d"/><stop offset="1" stop-color="#a1756d"/></radialGradient><linearGradient id="linear-gradient" x1="54.61" y1="113.85" x2="49.18" y2="125.11" gradientUnits="userSpaceOnUse"><stop offset="0.59" stop-color="#42615d"/><stop offset="1" stop-color="#a1756d"/></linearGradient><radialGradient id="radial-gradient-2" cx="48.35" cy="80.3" r="1.2" gradientTransform="translate(102.3 161.21) rotate(176.12) scale(1 1.05)" xlink:href="#radial-gradient"/><radialGradient id="radial-gradient-3" cx="50.1" cy="82.13" r="0.25" gradientTransform="translate(105.92 164.85) rotate(176.12) scale(1 1.05)" xlink:href="#radial-gradient"/><radialGradient id="radial-gradient-4" cx="38.66" cy="110.8" r="1.43" gradientTransform="translate(85.09 224.35) rotate(176.12) scale(1 1.05)" xlink:href="#radial-gradient"/><radialGradient id="radial-gradient-5" cx="62.62" cy="104.53" r="24.08" gradientTransform="translate(31.42 -14.39) rotate(15.92) scale(1 1.01)" gradientUnits="userSpaceOnUse"><stop offset="0.63" stop-color="#42615d"/><stop offset="1" stop-color="#a1756d"/></radialGradient><radialGradient id="radial-gradient-6" cx="81.16" cy="112.9" r="1.8" gradientTransform="translate(34.45 -19.25) rotate(15.92) scale(1 1.01)" xlink:href="#radial-gradient-5"/><radialGradient id="radial-gradient-7" cx="78.3" cy="111.83" r="0.35" gradientTransform="translate(34.04 -18.49) rotate(15.92) scale(1 1.01)" xlink:href="#radial-gradient-5"/><radialGradient id="radial-gradient-8" cx="77.02" cy="110.93" r="0.5" gradientTransform="translate(33.74 -18.17) rotate(15.92) scale(1 1.01)" xlink:href="#radial-gradient-5"/><radialGradient id="radial-gradient-9" cx="63.5" cy="102.98" r="18.49" gradientTransform="translate(27.85 -3.56) rotate(15.92) scale(1 0.9)" gradientUnits="userSpaceOnUse"><stop offset="0.79" stop-color="#42615d"/><stop offset="0.99" stop-color="#a1756d"/></radialGradient><radialGradient id="radial-gradient-10" cx="61.79" cy="104.74" r="13.35" gradientTransform="matrix(0.96, 0.27, -0.33, 1.17, 37.44, -35.21)" gradientUnits="userSpaceOnUse"><stop offset="0.21" stop-color="#42615d"/><stop offset="0.57" stop-color="#44615d"/><stop offset="0.7" stop-color="#4b635e"/><stop offset="0.79" stop-color="#566560"/><stop offset="0.86" stop-color="#676963"/><stop offset="0.93" stop-color="#7d6d67"/><stop offset="0.98" stop-color="#98736b"/><stop offset="1" stop-color="#a1756d"/></radialGradient><radialGradient id="radial-gradient-11" cx="62.64" cy="102.82" r="9.59" gradientTransform="matrix(-0.22, -0.97, 1.1, -0.25, -36.12, 189.67)" gradientUnits="userSpaceOnUse"><stop offset="0.74" stop-color="#42615d"/><stop offset="1" stop-color="#a1756d"/></radialGradient><radialGradient id="radial-gradient-12" cx="70.18" cy="104.4" r="0.65" gradientTransform="matrix(-0.22, -0.97, 1.1, -0.25, -28.62, 199)" xlink:href="#radial-gradient-11"/><radialGradient id="radial-gradient-13" cx="60" cy="96.69" r="0.47" gradientTransform="matrix(-0.22, -0.97, 1.1, -0.25, -32.62, 179.43)" xlink:href="#radial-gradient-11"/><radialGradient id="radial-gradient-14" cx="61.34" cy="95.77" r="0.28" gradientTransform="matrix(-0.22, -0.97, 1.1, -0.25, -29.97, 179.58)" xlink:href="#radial-gradient-11"/><radialGradient id="radial-gradient-15" cx="54.27" cy="102.62" r="0.28" gradientTransform="matrix(-0.22, -0.97, 1.1, -0.25, -46.14, 181.26)" xlink:href="#radial-gradient-11"/><radialGradient id="radial-gradient-16" cx="62.87" cy="103.33" r="8.41" gradientTransform="translate(36.13 -32.16) rotate(15.92) scale(1 1.19)" gradientUnits="userSpaceOnUse"><stop offset="0.65" stop-color="#42615d"/><stop offset="1" stop-color="#a1756d"/></radialGradient><radialGradient id="radial-gradient-17" cx="62.71" cy="109.26" r="0.79" gradientTransform="translate(38.06 -32.97) rotate(15.92) scale(1 1.19)" xlink:href="#radial-gradient-16"/><radialGradient id="radial-gradient-18" cx="56.43" cy="105.39" r="0.97" gradientTransform="translate(36.56 -30.69) rotate(15.92) scale(1 1.19)" xlink:href="#radial-gradient-16"/><radialGradient id="radial-gradient-19" cx="57.28" cy="103.41" r="0.5" gradientTransform="translate(35.94 -30.64) rotate(15.92) scale(1 1.19)" xlink:href="#radial-gradient-16"/><radialGradient id="radial-gradient-20" cx="58.12" cy="98" r="1.02" gradientTransform="translate(34.21 -30.09) rotate(15.92) scale(1 1.19)" xlink:href="#radial-gradient-16"/><radialGradient id="radial-gradient-21" cx="67.21" cy="97.76" r="1.21" gradientTransform="translate(34.48 -32.55) rotate(15.92) scale(1 1.19)" xlink:href="#radial-gradient-16"/><radialGradient id="radial-gradient-22" cx="69.18" cy="105.48" r="1.06" gradientTransform="translate(37.07 -34.2) rotate(15.92) scale(1 1.19)" xlink:href="#radial-gradient-16"/><radialGradient id="radial-gradient-23" cx="67.8" cy="102.84" r="0.52" gradientTransform="translate(36.16 -33.44) rotate(15.92) scale(1 1.19)" xlink:href="#radial-gradient-16"/><radialGradient id="radial-gradient-24" cx="62.21" cy="102.6" r="5.64" gradientTransform="matrix(1, 0, 0, 1, 0, 0)" xlink:href="#radial-gradient-5"/><radialGradient id="radial-gradient-25" cx="62.3" cy="102.88" r="3.86" gradientTransform="matrix(1, 0, 0, 1, 0, 0)" xlink:href="#radial-gradient-5"/><radialGradient id="radial-gradient-26" cx="65.88" cy="105.45" r="2.15" gradientTransform="translate(89.78 -18.2) rotate(44.77)" xlink:href="#radial-gradient-5"/><radialGradient id="radial-gradient-27" cx="70.91" cy="95.91" r="0.84" gradientTransform="matrix(-1.08, -0.01, 0.01, -1, 137.91, 199.7)" xlink:href="#radial-gradient-5"/><radialGradient id="radial-gradient-28" cx="65.25" cy="106.82" r="0.72" gradientTransform="matrix(1, 0, 0, 1, 0, 0)" xlink:href="#radial-gradient-5"/><radialGradient id="radial-gradient-29" cx="60.16" cy="107" r="0.74" gradientTransform="matrix(1, 0, 0, 1, 0, 0)" xlink:href="#radial-gradient-5"/><radialGradient id="radial-gradient-30" cx="57.44" cy="101.92" r="0.89" gradientTransform="matrix(1, 0, 0, 1, 0, 0)" xlink:href="#radial-gradient-5"/><radialGradient id="radial-gradient-31" cx="62.58" cy="98.52" r="0.83" gradientTransform="matrix(1, 0, 0, 1, 0, 0)" xlink:href="#radial-gradient-5"/><radialGradient id="radial-gradient-32" cx="67.11" cy="101.72" r="0.79" gradientTransform="matrix(1, 0, 0, 1, 0, 0)" xlink:href="#radial-gradient-5"/><radialGradient id="radial-gradient-33" cx="60.7" cy="24.77" r="0.39" gradientTransform="matrix(1, 0, 0, 1, 0, 0)" xlink:href="#radial-gradient-5"/><radialGradient id="radial-gradient-34" cx="55.74" cy="23.64" r="0.3" gradientTransform="matrix(1, 0, 0, 1, 0, 0)" xlink:href="#radial-gradient-5"/><radialGradient id="radial-gradient-35" cx="54.96" cy="28.33" r="0.31" gradientTransform="matrix(1, 0, 0, 1, 0, 0)" xlink:href="#radial-gradient-5"/><radialGradient id="radial-gradient-36" cx="59.56" cy="29.02" r="0.3" gradientTransform="matrix(1, 0, 0, 1, 0, 0)" xlink:href="#radial-gradient-5"/><radialGradient id="radial-gradient-37" cx="67.46" cy="104.58" r="0.21" gradientTransform="translate(85.33 -94.75) rotate(44.77)" xlink:href="#radial-gradient-5"/><radialGradient id="radial-gradient-38" cx="64.7" cy="103.95" r="0.17" gradientTransform="translate(85.33 -94.75) rotate(44.77)" xlink:href="#radial-gradient-5"/><radialGradient id="radial-gradient-39" cx="64.27" cy="106.56" r="0.17" gradientTransform="translate(85.33 -94.75) rotate(44.77)" xlink:href="#radial-gradient-5"/><radialGradient id="radial-gradient-40" cx="66.83" cy="106.95" r="0.16" gradientTransform="translate(85.33 -94.75) rotate(44.77)" xlink:href="#radial-gradient-5"/></defs><g id="text"><text class="cls-1" transform="translate(0 38.35)">C</text><text class="cls-2" transform="translate(90.72 38.35)">CTUS</text></g><g id="succulent"><g id="bottom_leaf" data-name="bottom leaf"><path id="green-leaf" class="cls-3" d="M48,122.56s-4.13-1.29-6.41-7.29a6.24,6.24,0,0,0-4.73-3.87s2.39-2.41,2-7.1c-.42-3.84,1-5.56,2-6.18,0,0-.18-3.6-2.51-4.75,0,0,3.32.39,5.07-1.05-1.29-4.17,2.82-7.53,2.82-7.53s3.22-3,1-5.63c0,0,1.89,1.63,5.26-.93s10-1.81,11.6,1.12c0,0,1.42-.3,1.85-1.14a3.34,3.34,0,0,0,2.19,2.25,5.54,5.54,0,0,1,7.26-1.55c4.64,2.32,5.52,2.49,7.67,1.21,0,0-1.51,2.4,2.12,4.24S90,90,86.86,93.88c0,0,.43,2.82,2.89,2.65a2.5,2.5,0,0,0-1.55,1.85s4,.2,1.31,8.14-.1,8.64-.1,8.64-1.57-.94-5.06,4.44-5.74,5.36-7.44,4.71a3.31,3.31,0,0,0,.18,2.5c-1-.7-.78-.73-3.28-1.07,0,0-.34,1.72-5.46,2.46-3.89.4-4.3,1.27-4.6,1.82-.16-.35-.25-1.88-5.26-2.88s-6-2.26-6.29-3.54" transform="translate(-4.45 -76.55)"/><path class="cls-4" d="M43.69,110.77a5.6,5.6,0,0,0,1.75,5.53A9.31,9.31,0,0,1,47.71,125a4.61,4.61,0,0,1,4.49-1.38c.31.05,0,0,5.06,1.22s5.09-1.61,5.09-1.61" transform="translate(-4.45 -76.55)"/><g id="details"><path class="cls-5" d="M49.45,81.44a31.41,31.41,0,0,0-2.19-2.28" transform="translate(-4.45 -76.55)"/><path class="cls-6" d="M49.93,81.84a2.44,2.44,0,0,1,.34.58" transform="translate(-4.45 -76.55)"/><path class="cls-7" d="M47.76,85.68a12.38,12.38,0,0,1-1.91,2.41,8.08,8.08,0,0,0-2.41,4.23s1.75-3.11,3.64-4.33A7.21,7.21,0,0,1,51,86.63" transform="translate(-4.45 -76.55)"/><path class="cls-7" d="M40.88,98.12s-1,7.58,3.2,10.53h0" transform="translate(-4.45 -76.55)"/><path class="cls-7" d="M66.57,82.92a6.24,6.24,0,0,1-.6-4.71c-.38,2.3-2.78,4.19-2.78,4.19" transform="translate(-4.45 -76.55)"/><path class="cls-7" d="M48.1,85.2a3.4,3.4,0,0,0,.56-1.12" transform="translate(-4.45 -76.55)"/><path class="cls-8" d="M40.45,110.21a13.18,13.18,0,0,1-3.59,1.19" transform="translate(-4.45 -76.55)"/><path class="cls-7" d="M41.8,96.74a5.75,5.75,0,0,0-3.43-3.37s4.57,1.92,5.32,3.16" transform="translate(-4.45 -76.55)"/><path class="cls-7" d="M64.12,79.35a31,31,0,0,1-5.05.77c-2.43.11-6.37,1.53-6.6,4.65" transform="translate(-4.45 -76.55)"/><path class="cls-9" d="M68.16,80.46s2.93.83,4.45,1.09a6.52,6.52,0,0,1,5.68,6.33" transform="translate(-4.45 -76.55)"/><path class="cls-7" d="M77.6,87.84s.23-3.51-4.27-4.5" transform="translate(-4.45 -76.55)"/><path class="cls-7" d="M72.66,83.23a4,4,0,0,1-1.07-.4" transform="translate(-4.45 -76.55)"/><path class="cls-7" d="M83.09,80.12s-2.5,2.75-2.89,4.73" transform="translate(-4.45 -76.55)"/><path class="cls-9" d="M86.86,93.88s-.52-5.61-7-5.32" transform="translate(-4.45 -76.55)"/><path class="cls-7" d="M86.55,88.55a6.43,6.43,0,0,1,.28,5.14" transform="translate(-4.45 -76.55)"/><path class="cls-7" d="M86.65,100s1.5-2.83,3.1-3.49c0,0-4.68,1.6-5.18,2.3" transform="translate(-4.45 -76.55)"/><path class="cls-7" d="M88.2,98.38a25.57,25.57,0,0,0-.28,5.43c.22,2.53.83,7.67-5.35,9.15" transform="translate(-4.45 -76.55)"/><path class="cls-7" d="M82.25,112.25a6.23,6.23,0,0,0,3.41-2.61" transform="translate(-4.45 -76.55)"/><path class="cls-7" d="M86,109a6.15,6.15,0,0,0,.24-1.17" transform="translate(-4.45 -76.55)"/><path class="cls-7" d="M89.41,115.16s-3.11-1.24-3.75-2.2" transform="translate(-4.45 -76.55)"/><path class="cls-7" d="M82.57,113.73c2.37,4.45-1.21,6.79-3.2,7.94a5.34,5.34,0,0,0-2.46,2.64" transform="translate(-4.45 -76.55)"/><path class="cls-7" d="M73.87,121.44s2.07,4.37,3.22,5.37c0,0-2.15-2.77,1.17-6" transform="translate(-4.45 -76.55)"/><path class="cls-7" d="M73.63,120.92a3.9,3.9,0,0,1-.24-.67" transform="translate(-4.45 -76.55)"/><path class="cls-9" d="M73.81,125.74a20,20,0,0,0-3.69,0c-1.7.19-6.4.82-7.09-2.37" transform="translate(-4.45 -76.55)"/><path class="cls-7" d="M66.89,127.05s5.62-.34,5.66-1.39" transform="translate(-4.45 -76.55)"/><path class="cls-7" d="M63.75,130s.16-2.49-.42-3.35" transform="translate(-4.45 -76.55)"/><path class="cls-7" d="M62.13,127.36a5.91,5.91,0,0,0-2.51-.89" transform="translate(-4.45 -76.55)"/><path class="cls-7" d="M55.75,125.64s-2.75-1.07-3.55-2" transform="translate(-4.45 -76.55)"/><path class="cls-9" d="M51.55,120.42s-3.27,2.54-3.77,4.46c0,0,.82-3,6.4-2.08" transform="translate(-4.45 -76.55)"/><path class="cls-7" d="M48.65,120.24a33.66,33.66,0,0,1-.87,4.64" transform="translate(-4.45 -76.55)"/><path class="cls-7" d="M55.13,123a5.89,5.89,0,0,1,1.08.35" transform="translate(-4.45 -76.55)"/><path class="cls-7" d="M57.28,123.75s4,1.37,4.64-.61" transform="translate(-4.45 -76.55)"/><path class="cls-7" d="M44.38,118.42s1.88,2.47,3.33,3" transform="translate(-4.45 -76.55)"/><path class="cls-7" d="M42,102.44s.08,3.89,2.47,5.41" transform="translate(-4.45 -76.55)"/><path class="cls-7" d="M41.89,101.39a11.56,11.56,0,0,1-.08-1.87" transform="translate(-4.45 -76.55)"/><path class="cls-7" d="M81.75,114.06s1.45,2.83,0,4.36" transform="translate(-4.45 -76.55)"/><path class="cls-7" d="M81.25,119s-.52.46-.91.76" transform="translate(-4.45 -76.55)"/></g></g><g id="yellow-stroke"><path class="cls-10" d="M80.16,87.23a6.34,6.34,0,0,0,.27,5c1.27,2.94,3.4,7.1-1.94,10.16,0,0,3.84-.39,3.45,6.28,0,0-.36,4.13,1.31,4.95,0,0-2.15-.15-4.37,3.3s-5.88,2.48-6.82,1c0,0,.66,2.39-3.31,4.48-3.41,1.74-3,2.91-3.09,3.25-.17-.36-.52-2.37-4.8-2.61s-5.94-2-5.91-5.7c0,0-3.86.79-7-3.64-3.09-3.5-5.51-3-6-3,.11-.07,3-1.12,3.22-6.34S49,99.16,49,99.16a6.59,6.59,0,0,1-.78-1.49,8.63,8.63,0,0,1,1-8c2.8-3.84,1.72-5,1.72-5a12.49,12.49,0,0,0,1.46.06,10.83,10.83,0,0,0,4.33-.84s7-2.84,7.43,4.79A6.89,6.89,0,0,1,70,85.6,10.27,10.27,0,0,1,75.3,87C77.73,88.49,79.63,87.76,80.16,87.23Z" transform="translate(-4.45 -76.55)"/><g id="details-2" data-name="details"><path class="cls-11" d="M79.07,112.18a16.14,16.14,0,0,0,4.18,1.45" transform="translate(-4.45 -76.55)"/><path class="cls-12" d="M78.65,112.06a2.11,2.11,0,0,1-.71-.46" transform="translate(-4.45 -76.55)"/><path class="cls-13" d="M77.48,111.33a3.53,3.53,0,0,1-.92-.81" transform="translate(-4.45 -76.55)"/><path class="cls-14" d="M78.35,102.83s1.54,0,2,2.7" transform="translate(-4.45 -76.55)"/><path class="cls-14" d="M72.59,117.07s1.47,2.26,4,0" transform="translate(-4.45 -76.55)"/><path class="cls-14" d="M71.3,117.49s.87,2-2.29,3.77a7.67,7.67,0,0,0-2,1.24" transform="translate(-4.45 -76.55)"/><path class="cls-14" d="M65.66,125.64A18.77,18.77,0,0,0,64.6,121" transform="translate(-4.45 -76.55)"/><path class="cls-14" d="M64.18,120.29a7.36,7.36,0,0,0-.68-1.37" transform="translate(-4.45 -76.55)"/><path class="cls-14" d="M55.63,117.1a4,4,0,0,0,2.76,4.11" transform="translate(-4.45 -76.55)"/><path class="cls-14" d="M54.18,116.47" transform="translate(-4.45 -76.55)"/><path class="cls-14" d="M54.18,116.47s-2.65.35-5.15-3.15" transform="translate(-4.45 -76.55)"/><path class="cls-14" d="M42,110.65s5.26-2.11,6.75-2.14" transform="translate(-4.45 -76.55)"/><path class="cls-14" d="M48,100.26s-1.36.8-1.72,4.27S45.19,108,45.19,108" transform="translate(-4.45 -76.55)"/><path class="cls-14" d="M49.19,97.45S48,95,48.93,93.08" transform="translate(-4.45 -76.55)"/><path class="cls-14" d="M49.19,92.4a3.38,3.38,0,0,1,.5-1.19" transform="translate(-4.45 -76.55)"/><path class="cls-14" d="M50.58,90.11s2.3-3.09.43-5.4c0,0,2.89,2.56,3.65,4.22" transform="translate(-4.45 -76.55)"/><path class="cls-14" d="M73.64,88.16s4.7,1.4,6.52-.93c0,0-4.36,4.53-4.44,5.17" transform="translate(-4.45 -76.55)"/><path class="cls-14" d="M78.87,91.5a9.84,9.84,0,0,1,1.29-4.27" transform="translate(-4.45 -76.55)"/><path class="cls-14" d="M79.51,92.53a8.85,8.85,0,0,1,1.41,3.57" transform="translate(-4.45 -76.55)"/><path class="cls-14" d="M81.08,97s.51,2.48-2.43,4.19" transform="translate(-4.45 -76.55)"/></g></g><g id="black-stroke"><path class="cls-15" d="M51.5,107.47s-3.29.32-3.39-5.11c0,0,.19-3.49-1.34-4.4,0,0,2.49.15,3.54-1.52s2.72-3.92,5.4-2.2l.67-.24s-1.1-3.06,2.77-4.25c0,0,4.49-.64,4.92-2.38a4.66,4.66,0,0,0,2.87,2.38c2.2.71,4.16,2.72,3,5.73,0,0,4.11-2.15,6.07,1.19S80.22,99,80.22,99a5,5,0,0,0-1.86,4.31c.19,2.9-1.2,5.82-4.92,4.15,0,0,3.63.85.14,6.59,0,0-1.93,3-.45,3.93,0,0-.66-1.12-3.89-.09s-5.31,1.14-5.95-1.42c0,0,.15,2.45-5.8.85,0,0-2.34-1-3.66.78a3.26,3.26,0,0,0-.21-3.31c-1.14-1.74-3.24-3.59-1.25-6.15S51.5,107.47,51.5,107.47Z" transform="translate(-4.45 -76.55)"/><g id="details-3" data-name="details"><path class="cls-7" d="M69.35,113.54s2.59,3.91,3.78,4.46a6.12,6.12,0,0,1-1.49-3.06" transform="translate(-4.45 -76.55)"/><path class="cls-9" d="M63.58,116.38" transform="translate(-4.45 -76.55)"/><path class="cls-7" d="M63.58,116.38a3.29,3.29,0,0,0,3.75,1.21c2.69-.63,2.88-.52,2.88-.52" transform="translate(-4.45 -76.55)"/><path class="cls-7" d="M55.65,115.54a12.6,12.6,0,0,0-1.82,2.58,3.38,3.38,0,0,1,3.41-1.59c2.17.48,3.78.87,4.72.3" transform="translate(-4.45 -76.55)"/><path class="cls-7" d="M53,109.4s-1.49,1,.31,3.61" transform="translate(-4.45 -76.55)"/><path class="cls-7" d="M53.56,113.54a5.43,5.43,0,0,1,.53.87" transform="translate(-4.45 -76.55)"/><path class="cls-7" d="M46.77,98a19.56,19.56,0,0,1,3.3,1.53" transform="translate(-4.45 -76.55)"/><path class="cls-7" d="M48.74,99.73a6.43,6.43,0,0,1,.39,2.23" transform="translate(-4.45 -76.55)"/><path class="cls-7" d="M49.08,103.05s-.12,2.19.84,2.77" transform="translate(-4.45 -76.55)"/><path class="cls-7" d="M56.79,92.93s.11-1.89,3-2.33" transform="translate(-4.45 -76.55)"/><path class="cls-7" d="M60.56,90.46a4.66,4.66,0,0,0,1.51-.53" transform="translate(-4.45 -76.55)"/><path class="cls-7" d="M64.07,87.37a18.39,18.39,0,0,1-.14,4" transform="translate(-4.45 -76.55)"/><path class="cls-7" d="M67.74,90.89a4,4,0,0,1,1.69,3.51" transform="translate(-4.45 -76.55)"/><path class="cls-7" d="M77.41,103.17s.4-3.06,2.81-4.15l-3.77,1.75" transform="translate(-4.45 -76.55)"/><path class="cls-7" d="M75.63,97.75a3.42,3.42,0,0,0-3.18-2.14c-2.28.12-1.57.39-1.57.39" transform="translate(-4.45 -76.55)"/><path class="cls-7" d="M76.74,106.35s-.85,2-4,0" transform="translate(-4.45 -76.55)"/><path class="cls-7" d="M73.13,107.63a2.87,2.87,0,0,1,1,3.29" transform="translate(-4.45 -76.55)"/></g></g><g id="middle-yellow"><path class="cls-16" d="M53.33,101.46s-4-1-.27-5.76c0,0,1.52-1.52.89-3.08a3.62,3.62,0,0,0,3.2.2c1.91-.71,4.83-.74,5.47,1.59s.72.27.72.27.66-1.9,3.62-.77,3.51,0,3.51,0-.47.66.78,2.76.93,2.92,0,3.54a1.22,1.22,0,0,0-.35,1.64s1.36-.31,1.51,2.45c0,0,.19,2.93,1.1,3.09a3.73,3.73,0,0,0-1.62,1.88c-.52,1.32-2.42,3.08-4.38,1.16,0,0,1.68,2.34-1.48,3.93,0,0-2.71,1.45-2.66,2.71a3.74,3.74,0,0,0-2.18-2c-1.66-.61-4.91-2.15-3.41-4.73.26.62-3.49,2.14-4.8-.89a5.44,5.44,0,0,0-2.91-2.71A3.46,3.46,0,0,0,51.49,104S51.43,101.53,53.33,101.46Z" transform="translate(-4.45 -76.55)"/><g id="details-4" data-name="details"><path class="cls-14" d="M63.15,112.94a23.48,23.48,0,0,0,.22,4.13,4.38,4.38,0,0,1,1.94-3.48" transform="translate(-4.45 -76.55)"/><path class="cls-14" d="M57.43,110a2.35,2.35,0,0,1-2.26.14" transform="translate(-4.45 -76.55)"/><path class="cls-14" d="M50.07,106.69a10.68,10.68,0,0,0,3.15-.55" transform="translate(-4.45 -76.55)"/><path class="cls-14" d="M53.24,101.83a2.05,2.05,0,0,0-.87,1.33" transform="translate(-4.45 -76.55)"/><path class="cls-14" d="M53.33,101.46s-1.53-2.38.11-4.39" transform="translate(-4.45 -76.55)"/><path class="cls-14" d="M53.82,96.55a4.69,4.69,0,0,0,.63-1.4" transform="translate(-4.45 -76.55)"/><path class="cls-14" d="M54,92.62a25,25,0,0,0,1.8,2.11" transform="translate(-4.45 -76.55)"/><path class="cls-14" d="M70.47,93.91a8.74,8.74,0,0,0-1.34,2.33" transform="translate(-4.45 -76.55)"/><path class="cls-14" d="M71,99.78a1.78,1.78,0,0,0,0-2" transform="translate(-4.45 -76.55)"/><path class="cls-14" d="M73.51,107.39a5.86,5.86,0,0,1-2.53-.46" transform="translate(-4.45 -76.55)"/><path class="cls-14" d="M67.51,110.43a3.57,3.57,0,0,0,2.93-.47" transform="translate(-4.45 -76.55)"/></g></g><g id="middle-yellow-2" data-name="middle-yellow"><path class="cls-17" d="M58.66,97.58s0-1.63,2.45-2.45S63,93.23,63,93.23s.3,1.72,1.27,2,2,.51,2.18,2.11.87.48.87.48a2.38,2.38,0,0,1,2.78.94c1.21,1.6,2,1.51,2,1.51s-1,.14-.88,3-1.81,2.56-1.81,2.56l-.43-.54s1.85.33.73,2.51-.33,2.9-.33,2.9-.82-.67-2.87.21a2.49,2.49,0,0,1-3.15-1s0,1.64-3,1.26c0,0-1.54-.23-2.11.76a2.19,2.19,0,0,0-1.06-2.17c-1.73-1.11-1.68-4.51-1.12-4.36-.11.38-2.42,1.21-2.72-3a4.06,4.06,0,0,0-.81-2.33,3.87,3.87,0,0,0,2.32-.94c1.09-.93,2.51-1.39,3.45-.78S58.66,97.58,58.66,97.58Z" transform="translate(-4.45 -76.55)"/><g id="details-5" data-name="details"><path class="cls-7" d="M63.89,109.52a2.88,2.88,0,0,0,3.27.58" transform="translate(-4.45 -76.55)"/><path class="cls-7" d="M69.39,110.76A13.65,13.65,0,0,1,67.47,109" transform="translate(-4.45 -76.55)"/><path class="cls-7" d="M58.21,112a6.25,6.25,0,0,1,1-2" transform="translate(-4.45 -76.55)"/><path class="cls-7" d="M62.51,109.85s-.17.59-1.5.59" transform="translate(-4.45 -76.55)"/><path class="cls-9" d="M57.36,108.83" transform="translate(-4.45 -76.55)"/><path class="cls-9" d="M56.94,106.5" transform="translate(-4.45 -76.55)"/><path class="cls-7" d="M56.18,105.94a5.28,5.28,0,0,0,.93,2.77" transform="translate(-4.45 -76.55)"/><path class="cls-9" d="M60.37,109.1" transform="translate(-4.45 -76.55)"/><line class="cls-7" x1="55.05" y1="32.97" x2="55.34" y2="32.55"/><path class="cls-9" d="M52.5,100.15a9.42,9.42,0,0,1,2.26,1.46" transform="translate(-4.45 -76.55)"/><path class="cls-7" d="M55.86,105.29a2.25,2.25,0,0,1-1.41-2" transform="translate(-4.45 -76.55)"/><path class="cls-7" d="M63,93.23a21,21,0,0,1-.21,3" transform="translate(-4.45 -76.55)"/><path class="cls-7" d="M70.06,101a8.06,8.06,0,0,1,2-.71s-1.56.53-1.49,1.67" transform="translate(-4.45 -76.55)"/><path class="cls-18" d="M69.63,105.12a1.52,1.52,0,0,0,1.07-1.48" transform="translate(-4.45 -76.55)"/><path class="cls-19" d="M59.55,97.18a1.59,1.59,0,0,1,.88-1" transform="translate(-4.45 -76.55)"/><path class="cls-20" d="M61,96a4.82,4.82,0,0,0,.69-.37" transform="translate(-4.45 -76.55)"/><path class="cls-21" d="M54.38,103a3,3,0,0,0-.23-.76" transform="translate(-4.45 -76.55)"/></g></g><g id="center-yellow"><path class="cls-22" d="M58.12,102.2c-.11.36-2.14-1-1.12-3.11a4.83,4.83,0,0,0,.47-2.15,4.07,4.07,0,0,0,2.37.18c1.3-.3,2.51.27,2.46,1.27s.59.06.59.06S63,97,65,97.09s2.2.06,2.9-.63a2.64,2.64,0,0,0,.21,2.47,1.88,1.88,0,0,1-.7,2.94s1.56-.15,1.79,1.84,1.23,2,1.23,2-.83-.35-2.11,1.18-2.2.92-2.81.15a2.58,2.58,0,0,1-1.63,2.36,2.81,2.81,0,0,0-1,.78,2.65,2.65,0,0,0-1.16-1c-.65-.21-2.47-1.29-1.59-2.51,0,0-.82,2.36-3.17-.28a2.67,2.67,0,0,0-1.64-.65,2,2,0,0,0,1-1.51C56.48,103.14,57.09,102.12,58.12,102.2Z" transform="translate(-4.45 -76.55)"/><g id="details-6" data-name="details"><path class="cls-23" d="M62.86,110.2a4,4,0,0,0-.31-1.89" transform="translate(-4.45 -76.55)"/><path class="cls-24" d="M55.3,105.75a5.91,5.91,0,0,0,2.26-.72" transform="translate(-4.45 -76.55)"/><path class="cls-25" d="M57.48,102.84a4,4,0,0,0-.41,1.14" transform="translate(-4.45 -76.55)"/><path class="cls-26" d="M57.47,96.94a6.68,6.68,0,0,1,1.29,2.12" transform="translate(-4.45 -76.55)"/><path class="cls-27" d="M67.91,96.46a23.31,23.31,0,0,0-1.39,2.6" transform="translate(-4.45 -76.55)"/><path class="cls-28" d="M70.44,105.73a15.68,15.68,0,0,0-2.53-.51" transform="translate(-4.45 -76.55)"/><path class="cls-29" d="M67.39,102.34a1.69,1.69,0,0,1,.81,1" transform="translate(-4.45 -76.55)"/></g></g><g id="center-black"><g id="leaves"><path class="cls-30" d="M56.21,101.65a3.67,3.67,0,0,0,1.79-.92,1.76,1.76,0,0,1,2.06-.46c-.33,0-.27-1.6,1.27-1.92a2.18,2.18,0,0,0,1.4-1,2,2,0,0,0,.64,1,1.67,1.67,0,0,1,.8,2.13,1.55,1.55,0,0,1,2.34.09,3.36,3.36,0,0,0,1.69.94,3.83,3.83,0,0,0-1,1.2c-.35,1-1,1.73-2.35.87,0,0,2.31.56,1.36,2.18-.75,1.29-.44,1.93-.44,1.93a2.39,2.39,0,0,0-1.73-.58,1.24,1.24,0,0,1-1.53-1.5s.23,1.07-1.47,1.37a3.11,3.11,0,0,0-1.46.87,1.63,1.63,0,0,0,0-1.52c-.45-.64-1-2.08.53-2.39,0,0-1.45.79-2.62-1.11A4.58,4.58,0,0,0,56.21,101.65Z" transform="translate(-4.45 -76.55)"/><path class="cls-31" d="M60,99.83l-.11.18a3.86,3.86,0,0,0,.47,2.87c-1.89.88-1.27,2.25-1.27,2.25,1,1,2.78-.5,2.78-.5a2.22,2.22,0,0,0,2.43,1.27c.72-1.3-.48-2.74-.48-2.74a2.13,2.13,0,0,0,1.87-2,2.36,2.36,0,0,0-3.18,1S61.88,100,60,99.83Z" transform="translate(-4.45 -76.55)"/><path class="cls-32" d="M62.56,100.94l-.12,0a2.12,2.12,0,0,0-.94,1.31c-1.09-.39-1.38.39-1.38.39,0,.77,1.29.9,1.29.9a1.23,1.23,0,0,0,.47,1.45c.79-.23.88-1.27.88-1.27a1.18,1.18,0,0,0,1.54-.07,1.31,1.31,0,0,0-1.65-.85A1.76,1.76,0,0,0,62.56,100.94Z" transform="translate(-4.45 -76.55)"/><path class="cls-33" d="M61.47,103.19s-.46-.5,0-.83.88.22.88.22.72,0,.71.52-.58.5-.72.49-.28.52-.69.31A.49.49,0,0,1,61.47,103.19Z" transform="translate(-4.45 -76.55)"/></g><g id="details-7" data-name="details"><path class="cls-34" d="M64.75,105.94a13.3,13.3,0,0,1,1,1.76" transform="translate(-4.45 -76.55)"/><path class="cls-35" d="M59.56,107.86a11.67,11.67,0,0,1,1.19-1.71" transform="translate(-4.45 -76.55)"/><path class="cls-36" d="M56.21,101.65a12,12,0,0,1,2.46.53" transform="translate(-4.45 -76.55)"/><path class="cls-37" d="M62.73,97.35a10.89,10.89,0,0,0-.29,2.34" transform="translate(-4.45 -76.55)"/><path class="cls-38" d="M68.2,101.52a10,10,0,0,0-2.19.4" transform="translate(-4.45 -76.55)"/><line class="cls-39" x1="61.21" y1="24.56" x2="60.2" y2="24.97"/><line class="cls-40" x1="55.52" y1="23.28" x2="55.96" y2="23.99"/><line class="cls-41" x1="54.6" y1="28.58" x2="55.33" y2="28.07"/><line class="cls-42" x1="59.82" y1="29.35" x2="59.31" y2="28.69"/><line class="cls-43" x1="59.85" y1="27.13" x2="59.29" y2="26.89"/><line class="cls-44" x1="58.11" y1="24.39" x2="58" y2="24.85"/><line class="cls-45" x1="55.67" y1="26.12" x2="56.16" y2="26.21"/><line class="cls-46" x1="57.43" y1="28.47" x2="57.49" y2="28.01"/></g></g></g></svg>